# xmcd CD database file
#
# Track frame offsets:
#	150
#	15293
#	37038
#	58378
#	77105
#	100335
#	113943
#	138065
#	152553
#	166405
#	181523
#
# Disc length: 2693 seconds
#
# Revision: 1
# Processed by: cddbd v1.4PL0 Copyright (c) Steve Scherf et al.
# Submitted via: CDex 1.50beta10
#
DISCID=810a830b
DTITLE=Billy Flynn - Leavin' in the Morning
DYEAR=1991
DGENRE=Blues
TTITLE0=Billy's Boogie
TTITLE1=Mean Mistreater
TTITLE2=Movin' To Chicago
TTITLE3=What's Wrong
TTITLE4=No One To Love Me
TTITLE5=Walkin' The Ceiling
TTITLE6=Luv Somebody
TTITLE7=Two Headed Woman
TTITLE8=Zeb's Blues
TTITLE9=Tore Down
TTITLE10=If You Let Me Love You
EXTD=YEAR: 1991
EXTT0=
EXTT1=
EXTT2=
EXTT3=
EXTT4=
EXTT5=
EXTT6=
EXTT7=
EXTT8=
EXTT9=
EXTT10=
PLAYORDER=
